<mxfile host="app.diagrams.net" modified="2023-06-13T16:07:36.803Z" agent="Mozilla/5.0 (Windows NT 10.0; Win64; x64) AppleWebKit/537.36 (KHTML, like Gecko) Chrome/112.0.0.0 Safari/537.36" version="21.3.8" etag="y5fPj-7WHLF2DEU02nji" type="github">
  <diagram name="Page-1" id="ikJGw_t53JPDbnbYUZR4">
    <mxGraphModel>
      <root>
        <mxCell id="0" />
        <mxCell id="1" parent="0" />
      </root>
    </mxGraphModel>
  </diagram>
</mxfile>
